<svg width="21" height="20" viewBox="0 0 21 20" fill="none" xmlns="http://www.w3.org/2000/svg">
<path d="M5.40251 6.94824H1.53339C1.36167 6.94824 1.22253 7.08744 1.22253 7.2591V19.6889C1.22253 19.8606 1.36167 19.9998 1.53339 19.9998H5.40251C5.57423 19.9998 5.71337 19.8606 5.71337 19.6889V7.2591C5.71337 7.08744 5.57423 6.94824 5.40251 6.94824Z" fill="#707070"/>
<path d="M3.4694 0.769043C2.06158 0.769043 0.91626 1.91312 0.91626 3.31938C0.91626 4.72626 2.06158 5.87078 3.4694 5.87078C4.87609 5.87078 6.02048 4.7262 6.02048 3.31938C6.02054 1.91312 4.87609 0.769043 3.4694 0.769043Z" fill="#707070"/>
<path d="M15.244 6.63965C13.69 6.63965 12.5413 7.30768 11.8445 8.06673V7.25944C11.8445 7.08778 11.7054 6.94858 11.5337 6.94858H7.82831C7.6566 6.94858 7.51746 7.08778 7.51746 7.25944V19.6893C7.51746 19.861 7.6566 20.0001 7.82831 20.0001H11.689C11.8607 20.0001 11.9998 19.861 11.9998 19.6893V13.5394C11.9998 11.467 12.5627 10.6597 14.0074 10.6597C15.5807 10.6597 15.7057 11.9539 15.7057 13.646V19.6893C15.7057 19.861 15.8448 20.0002 16.0166 20.0002H19.8786C20.0504 20.0002 20.1895 19.861 20.1895 19.6893V12.8713C20.1895 9.78982 19.6019 6.63965 15.244 6.63965Z" fill="#707070"/>
</svg>
